<?xml version="1.0" standalone="no"?>
<!DOCTYPE svg PUBLIC "-//W3C//DTD SVG 20010904//EN"
 "http://www.w3.org/TR/2001/REC-SVG-20010904/DTD/svg10.dtd">
<svg version="1.0" xmlns="http://www.w3.org/2000/svg"
 width="1024.000000pt" height="1024.000000pt" viewBox="0 0 1024.000000 1024.000000"
 preserveAspectRatio="xMidYMid meet">

<g transform="translate(0.000000,1024.000000) scale(0.100000,-0.100000)"
fill="#003932" stroke="none">
<path d="M4884 8240 c-563 -47 -1104 -232 -1564 -534 -183 -121 -316 -230
-485 -400 -227 -228 -415 -473 -572 -746 -120 -209 -138 -256 -121 -316 9 -35
56 -74 87 -74 8 0 64 23 125 52 61 28 153 68 205 88 l95 37 52 86 c199 331
526 666 880 902 480 320 1120 496 1667 457 671 -49 1246 -295 1758 -755 182
-163 384 -407 512 -616 28 -46 58 -86 67 -89 48 -16 264 -109 314 -134 67 -34
109 -32 144 5 58 62 49 104 -65 310 -529 957 -1392 1557 -2452 1707 -158 23
-495 33 -647 20z"/>
<path d="M3155 5990 c-298 -19 -676 -78 -928 -145 -71 -18 -130 -35 -130 -37
-1 -2 -1 -75 1 -164 l3 -161 57 -12 c134 -29 222 -93 273 -197 30 -60 32 -72
40 -231 14 -267 50 -410 149 -600 228 -436 669 -668 1138 -599 279 41 512 163
710 370 161 169 261 361 334 644 22 86 48 173 58 192 41 81 152 150 240 150
48 0 126 -29 171 -64 63 -48 94 -112 129 -267 36 -161 51 -209 100 -314 66
-145 204 -330 318 -429 148 -127 343 -227 525 -268 73 -17 126 -21 257 -21
152 0 174 2 280 30 328 87 569 282 725 590 90 178 129 341 143 603 10 186 21
226 88 299 46 51 87 73 196 105 l83 24 3 160 c2 159 2 160 -20 166 -326 91
-693 154 -1016 176 -593 39 -1162 -54 -1845 -301 l-137 -50 -273 90 c-424 141
-693 207 -1011 246 -147 18 -489 26 -661 15z m3799 -329 c16 -9 37 -27 47 -41
l19 -25 -505 -508 c-278 -279 -520 -516 -538 -527 -46 -28 -139 -27 -192 3
-115 65 -147 210 -67 308 15 19 203 209 418 421 364 360 394 387 430 390 21 3
111 2 199 0 123 -3 167 -8 189 -21z m615 -60 c61 -44 87 -131 57 -189 -16 -29
-625 -639 -666 -666 -31 -20 -111 -21 -150 -1 -63 33 -101 116 -81 177 12 37
620 650 681 688 44 27 114 23 159 -9z"/>
<path d="M1945 5036 c-41 -18 -85 -71 -86 -104 -7 -137 17 -398 52 -565 124
-601 467 -1180 988 -1670 351 -330 860 -609 1346 -737 319 -84 584 -115 925
-107 616 14 1137 163 1660 473 559 332 1050 899 1308 1509 131 310 213 655
228 951 8 168 -1 199 -73 241 -54 31 -123 29 -172 -6 -45 -33 -56 -60 -85
-221 -53 -289 -117 -481 -251 -755 -258 -527 -654 -982 -1119 -1287 -463 -303
-1079 -474 -1636 -455 -365 13 -692 84 -1030 224 -375 154 -758 431 -1057 762
-397 439 -664 970 -757 1505 -26 154 -42 195 -88 229 -33 25 -113 32 -153 13z"/>
</g>
</svg>
